<?xml version="1.0" encoding="UTF-8" standalone="no"?>
<!-- Created with Inkscape (http://www.inkscape.org/) -->

<svg
   xmlns:dc="http://purl.org/dc/elements/1.1/"
   xmlns:cc="http://creativecommons.org/ns#"
   xmlns:rdf="http://www.w3.org/1999/02/22-rdf-syntax-ns#"
   xmlns:svg="http://www.w3.org/2000/svg"
   xmlns="http://www.w3.org/2000/svg"
   xmlns:sodipodi="http://sodipodi.sourceforge.net/DTD/sodipodi-0.dtd"
   xmlns:inkscape="http://www.inkscape.org/namespaces/inkscape"
   id="svg2"
   version="1.1"
   inkscape:version="0.48.3.1 r9886"
   width="525"
   height="395"
   xml:space="preserve"
   sodipodi:docname="bible.svg"><metadata
     id="metadata8"><rdf:RDF><cc:Work
         rdf:about=""><dc:format>image/svg+xml</dc:format><dc:type
           rdf:resource="http://purl.org/dc/dcmitype/StillImage" /><dc:title></dc:title></cc:Work></rdf:RDF></metadata><defs
     id="defs6"><clipPath
       clipPathUnits="userSpaceOnUse"
       id="clipPath18"><path
         d="m 0,8.33203 4200,0 0,3151.66997 -4200,0 L 0,8.33203 z"
         id="path20" /></clipPath><clipPath
       clipPathUnits="userSpaceOnUse"
       id="clipPath202"><path
         d="m 546.668,2923.33 3259.162,0 0,-2569.162 -3259.162,0 0,2569.162 z"
         id="path204" /></clipPath><clipPath
       clipPathUnits="userSpaceOnUse"
       id="clipPath212"><path
         d="m 751.668,864.168 122.5,0 0,-122.5 -122.5,0 0,122.5 z"
         id="path214" /></clipPath><clipPath
       clipPathUnits="userSpaceOnUse"
       id="clipPath224"><path
         d="m 546.668,2923.33 3259.162,0 0,-2569.162 -3259.162,0 0,2569.162 z"
         id="path226" /></clipPath><clipPath
       clipPathUnits="userSpaceOnUse"
       id="clipPath234"><path
         d="m 2475.83,2193.33 1327.5,0 0,-1589.162 -1327.5,0 0,1589.162 z"
         id="path236" /></clipPath><clipPath
       clipPathUnits="userSpaceOnUse"
       id="clipPath254"><path
         d="m 546.668,2923.33 3259.162,0 0,-2569.162 -3259.162,0 0,2569.162 z"
         id="path256" /></clipPath><clipPath
       clipPathUnits="userSpaceOnUse"
       id="clipPath264"><path
         d="m 494.168,2903.33 1221.662,0 0,-2057.498 -1221.662,0 0,2057.498 z"
         id="path266" /></clipPath><clipPath
       clipPathUnits="userSpaceOnUse"
       id="clipPath284"><path
         d="m 546.668,2923.33 3259.162,0 0,-2569.162 -3259.162,0 0,2569.162 z"
         id="path286" /></clipPath><clipPath
       clipPathUnits="userSpaceOnUse"
       id="clipPath294"><path
         d="m 983.332,962.5 318.338,0 0,-417.5 -318.338,0 0,417.5 z"
         id="path296" /></clipPath><clipPath
       clipPathUnits="userSpaceOnUse"
       id="clipPath318"><path
         d="m 0,8 0,3152 4200,0 L 4200,8 0,8 z"
         id="path320" /></clipPath><clipPath
       clipPathUnits="userSpaceOnUse"
       id="clipPath368"><path
         d="m 2725.83,2870.83 1010,0 0,-522.5 -1010,0 0,522.5 z"
         id="path370" /></clipPath><clipPath
       clipPathUnits="userSpaceOnUse"
       id="clipPath378"><path
         d="m 2881.67,2855 122.5,0 0,-122.5 -122.5,0 0,122.5 z"
         id="path380" /></clipPath><clipPath
       clipPathUnits="userSpaceOnUse"
       id="clipPath390"><path
         d="m 0,8 0,3152 4200,0 L 4200,8 0,8 z"
         id="path392" /></clipPath><clipPath
       clipPathUnits="userSpaceOnUse"
       id="clipPath404"><path
         d="m 2725.83,2870.83 1010,0 0,-522.5 -1010,0 0,522.5 z"
         id="path406" /></clipPath><clipPath
       clipPathUnits="userSpaceOnUse"
       id="clipPath414"><path
         d="m 2881.67,2732.5 122.5,0 0,-122.5 -122.5,0 0,122.5 z"
         id="path416" /></clipPath><clipPath
       clipPathUnits="userSpaceOnUse"
       id="clipPath426"><path
         d="m 0,8 0,3152 4200,0 L 4200,8 0,8 z"
         id="path428" /></clipPath><clipPath
       clipPathUnits="userSpaceOnUse"
       id="clipPath440"><path
         d="m 2725.83,2870.83 1010,0 0,-522.5 -1010,0 0,522.5 z"
         id="path442" /></clipPath><clipPath
       clipPathUnits="userSpaceOnUse"
       id="clipPath450"><path
         d="m 2881.67,2610 122.5,0 0,-122.5 -122.5,0 0,122.5 z"
         id="path452" /></clipPath><clipPath
       clipPathUnits="userSpaceOnUse"
       id="clipPath462"><path
         d="m 0,8 0,3152 4200,0 L 4200,8 0,8 z"
         id="path464" /></clipPath><clipPath
       clipPathUnits="userSpaceOnUse"
       id="clipPath476"><path
         d="m 2725.83,2870.83 1010,0 0,-522.5 -1010,0 0,522.5 z"
         id="path478" /></clipPath><clipPath
       clipPathUnits="userSpaceOnUse"
       id="clipPath486"><path
         d="m 2881.67,2487.5 122.5,0 0,-122.5 -122.5,0 0,122.5 z"
         id="path488" /></clipPath></defs><sodipodi:namedview
     pagecolor="#ffffff"
     bordercolor="#666666"
     borderopacity="1"
     objecttolerance="10"
     gridtolerance="10"
     guidetolerance="10"
     inkscape:pageopacity="0"
     inkscape:pageshadow="2"
     inkscape:window-width="1615"
     inkscape:window-height="1026"
     id="namedview4"
     showgrid="false"
     inkscape:zoom="0.59746835"
     inkscape:cx="262.5"
     inkscape:cy="197.5"
     inkscape:window-x="65"
     inkscape:window-y="24"
     inkscape:window-maximized="1"
     inkscape:current-layer="g10" /><g
     id="g10"
     inkscape:groupmode="layer"
     inkscape:label="ink_ext_XXXXXX"
     transform="matrix(1.25,0,0,-1.25,0,395)"><g
       id="g12"
       transform="scale(0.1,0.1)"><g
         id="g14"><g
           id="g16"
           clip-path="url(#clipPath18)"><path
             d="m 0,8.33203 4200,0 0,3151.66997 -4200,0 L 0,8.33203 z"
             style="fill:#ffffff;fill-opacity:1;fill-rule:nonzero;stroke:none"
             id="path22" /><path
             d="m 546.668,355 3258.33,0 0,2569.17 -3258.33,0 0,-2569.17 z"
             style="fill:#ffffff;fill-opacity:1;fill-rule:evenodd;stroke:none"
             id="path24" /><path
             d="m 546.668,355 0,2569.17 3258.332,0 0,-2569.17 -3258.332,0"
             style="fill:none;stroke:#ffffff;stroke-opacity:1;stroke-width:5;stroke-linecap:butt;stroke-linejoin:round;stroke-miterlimit:10;stroke-dasharray:none"
             id="path26" /><path
             d="m 546.668,2924.17 3258.332,0"
             style="fill:none;stroke:#000000;stroke-opacity:1;stroke-width:5;stroke-linecap:butt;stroke-linejoin:round;stroke-miterlimit:10;stroke-dasharray:none"
             id="path28" /><path
             d="M 546.668,355 3805,355"
             style="fill:none;stroke:#000000;stroke-opacity:1;stroke-width:5;stroke-linecap:butt;stroke-linejoin:round;stroke-miterlimit:10;stroke-dasharray:none"
             id="path30" /><path
             d="m 3805,355 0,2569.17"
             style="fill:none;stroke:#000000;stroke-opacity:1;stroke-width:5;stroke-linecap:butt;stroke-linejoin:round;stroke-miterlimit:10;stroke-dasharray:none"
             id="path32" /><path
             d="m 546.668,355 0,2569.17"
             style="fill:none;stroke:#000000;stroke-opacity:1;stroke-width:5;stroke-linecap:butt;stroke-linejoin:round;stroke-miterlimit:10;stroke-dasharray:none"
             id="path34" /><path
             d="M 546.668,355 3805,355"
             style="fill:none;stroke:#000000;stroke-opacity:1;stroke-width:5;stroke-linecap:butt;stroke-linejoin:round;stroke-miterlimit:10;stroke-dasharray:none"
             id="path36" /><path
             d="m 546.668,355 0,2569.17"
             style="fill:none;stroke:#000000;stroke-opacity:1;stroke-width:5;stroke-linecap:butt;stroke-linejoin:round;stroke-miterlimit:10;stroke-dasharray:none"
             id="path38" /><path
             d="m 546.668,355 0,33.332"
             style="fill:none;stroke:#000000;stroke-opacity:1;stroke-width:5;stroke-linecap:butt;stroke-linejoin:round;stroke-miterlimit:10;stroke-dasharray:none"
             id="path40" /><path
             d="m 546.668,2923.33 0,-32.5"
             style="fill:none;stroke:#000000;stroke-opacity:1;stroke-width:5;stroke-linecap:butt;stroke-linejoin:round;stroke-miterlimit:10;stroke-dasharray:none"
             id="path42" /><g
             id="g44"
             transform="scale(10,10)"><text
               transform="matrix(1,0,0,-1,49.1668,23.4168)"
               id="text46"><tspan
                 style="fill:#000000;fill-opacity:1;fill-rule:nonzero;stroke:none;font-family:Helvetica;font-variant:normal;font-weight:normal;font-size:10;writing-mode:lr;-inkscape-font-specification:Helvetica"
                 x="0 5.56"
                 y="0"
                 sodipodi:role="line"
                 id="tspan48">25</tspan></text>
</g><path
             d="m 1198.33,355 0,33.332"
             style="fill:none;stroke:#000000;stroke-opacity:1;stroke-width:5;stroke-linecap:butt;stroke-linejoin:round;stroke-miterlimit:10;stroke-dasharray:none"
             id="path50" /><path
             d="m 1198.33,2923.33 0,-32.5"
             style="fill:none;stroke:#000000;stroke-opacity:1;stroke-width:5;stroke-linecap:butt;stroke-linejoin:round;stroke-miterlimit:10;stroke-dasharray:none"
             id="path52" /><g
             id="g54"
             transform="scale(10,10)"><text
               transform="matrix(1,0,0,-1,114.333,23.4168)"
               id="text56"><tspan
                 style="fill:#000000;fill-opacity:1;fill-rule:nonzero;stroke:none;font-family:Helvetica;font-variant:normal;font-weight:normal;font-size:10;writing-mode:lr;-inkscape-font-specification:Helvetica"
                 x="0 5.56"
                 y="0"
                 sodipodi:role="line"
                 id="tspan58">30</tspan></text>
</g><path
             d="m 1850,355 0,33.332"
             style="fill:none;stroke:#000000;stroke-opacity:1;stroke-width:5;stroke-linecap:butt;stroke-linejoin:round;stroke-miterlimit:10;stroke-dasharray:none"
             id="path60" /><path
             d="m 1850,2923.33 0,-32.5"
             style="fill:none;stroke:#000000;stroke-opacity:1;stroke-width:5;stroke-linecap:butt;stroke-linejoin:round;stroke-miterlimit:10;stroke-dasharray:none"
             id="path62" /><g
             id="g64"
             transform="scale(10,10)"><text
               transform="matrix(1,0,0,-1,179.5,23.4168)"
               id="text66"><tspan
                 style="fill:#000000;fill-opacity:1;fill-rule:nonzero;stroke:none;font-family:Helvetica;font-variant:normal;font-weight:normal;font-size:10;writing-mode:lr;-inkscape-font-specification:Helvetica"
                 x="0 5.56"
                 y="0"
                 sodipodi:role="line"
                 id="tspan68">35</tspan></text>
</g><path
             d="m 2501.67,355 0,33.332"
             style="fill:none;stroke:#000000;stroke-opacity:1;stroke-width:5;stroke-linecap:butt;stroke-linejoin:round;stroke-miterlimit:10;stroke-dasharray:none"
             id="path70" /><path
             d="m 2501.67,2923.33 0,-32.5"
             style="fill:none;stroke:#000000;stroke-opacity:1;stroke-width:5;stroke-linecap:butt;stroke-linejoin:round;stroke-miterlimit:10;stroke-dasharray:none"
             id="path72" /><g
             id="g74"
             transform="scale(10,10)"><text
               transform="matrix(1,0,0,-1,244.667,23.4168)"
               id="text76"><tspan
                 style="fill:#000000;fill-opacity:1;fill-rule:nonzero;stroke:none;font-family:Helvetica;font-variant:normal;font-weight:normal;font-size:10;writing-mode:lr;-inkscape-font-specification:Helvetica"
                 x="0 5.56"
                 y="0"
                 sodipodi:role="line"
                 id="tspan78">40</tspan></text>
</g><path
             d="m 3153.33,355 0,33.332"
             style="fill:none;stroke:#000000;stroke-opacity:1;stroke-width:5;stroke-linecap:butt;stroke-linejoin:round;stroke-miterlimit:10;stroke-dasharray:none"
             id="path80" /><path
             d="m 3153.33,2923.33 0,-32.5"
             style="fill:none;stroke:#000000;stroke-opacity:1;stroke-width:5;stroke-linecap:butt;stroke-linejoin:round;stroke-miterlimit:10;stroke-dasharray:none"
             id="path82" /><g
             id="g84"
             transform="scale(10,10)"><text
               transform="matrix(1,0,0,-1,309.833,23.4168)"
               id="text86"><tspan
                 style="fill:#000000;fill-opacity:1;fill-rule:nonzero;stroke:none;font-family:Helvetica;font-variant:normal;font-weight:normal;font-size:10;writing-mode:lr;-inkscape-font-specification:Helvetica"
                 x="0 5.56"
                 y="0"
                 sodipodi:role="line"
                 id="tspan88">45</tspan></text>
</g><path
             d="m 3805,355 0,33.332"
             style="fill:none;stroke:#000000;stroke-opacity:1;stroke-width:5;stroke-linecap:butt;stroke-linejoin:round;stroke-miterlimit:10;stroke-dasharray:none"
             id="path90" /><path
             d="m 3805,2923.33 0,-32.5"
             style="fill:none;stroke:#000000;stroke-opacity:1;stroke-width:5;stroke-linecap:butt;stroke-linejoin:round;stroke-miterlimit:10;stroke-dasharray:none"
             id="path92" /><g
             id="g94"
             transform="scale(10,10)"><text
               transform="matrix(1,0,0,-1,375,23.4168)"
               id="text96"><tspan
                 style="fill:#000000;fill-opacity:1;fill-rule:nonzero;stroke:none;font-family:Helvetica;font-variant:normal;font-weight:normal;font-size:10;writing-mode:lr;-inkscape-font-specification:Helvetica"
                 x="0 5.56"
                 y="0"
                 sodipodi:role="line"
                 id="tspan98">50</tspan></text>
</g><path
             d="m 546.668,355 32.5,0"
             style="fill:none;stroke:#000000;stroke-opacity:1;stroke-width:5;stroke-linecap:butt;stroke-linejoin:round;stroke-miterlimit:10;stroke-dasharray:none"
             id="path100" /><path
             d="m 3805,355 -33.33,0"
             style="fill:none;stroke:#000000;stroke-opacity:1;stroke-width:5;stroke-linecap:butt;stroke-linejoin:round;stroke-miterlimit:10;stroke-dasharray:none"
             id="path102" /><g
             id="g104"
             transform="scale(10,10)"><text
               transform="matrix(1,0,0,-1,40.6668,31.8332)"
               id="text106"><tspan
                 style="fill:#000000;fill-opacity:1;fill-rule:nonzero;stroke:none;font-family:Helvetica;font-variant:normal;font-weight:normal;font-size:10;writing-mode:lr;-inkscape-font-specification:Helvetica"
                 x="0 5.56"
                 y="0"
                 sodipodi:role="line"
                 id="tspan108">10</tspan></text>
</g><path
             d="m 546.668,676.668 32.5,0"
             style="fill:none;stroke:#000000;stroke-opacity:1;stroke-width:5;stroke-linecap:butt;stroke-linejoin:round;stroke-miterlimit:10;stroke-dasharray:none"
             id="path110" /><path
             d="m 3805,676.668 -33.33,0"
             style="fill:none;stroke:#000000;stroke-opacity:1;stroke-width:5;stroke-linecap:butt;stroke-linejoin:round;stroke-miterlimit:10;stroke-dasharray:none"
             id="path112" /><g
             id="g114"
             transform="scale(10,10)"><text
               transform="matrix(1,0,0,-1,40.6668,64)"
               id="text116"><tspan
                 style="fill:#000000;fill-opacity:1;fill-rule:nonzero;stroke:none;font-family:Helvetica;font-variant:normal;font-weight:normal;font-size:10;writing-mode:lr;-inkscape-font-specification:Helvetica"
                 x="0 5.56"
                 y="0"
                 sodipodi:role="line"
                 id="tspan118">15</tspan></text>
</g><path
             d="m 546.668,997.5 32.5,0"
             style="fill:none;stroke:#000000;stroke-opacity:1;stroke-width:5;stroke-linecap:butt;stroke-linejoin:round;stroke-miterlimit:10;stroke-dasharray:none"
             id="path120" /><path
             d="m 3805,997.5 -33.33,0"
             style="fill:none;stroke:#000000;stroke-opacity:1;stroke-width:5;stroke-linecap:butt;stroke-linejoin:round;stroke-miterlimit:10;stroke-dasharray:none"
             id="path122" /><g
             id="g124"
             transform="scale(10,10)"><text
               transform="matrix(1,0,0,-1,40.6668,96.0832)"
               id="text126"><tspan
                 style="fill:#000000;fill-opacity:1;fill-rule:nonzero;stroke:none;font-family:Helvetica;font-variant:normal;font-weight:normal;font-size:10;writing-mode:lr;-inkscape-font-specification:Helvetica"
                 x="0 5.56"
                 y="0"
                 sodipodi:role="line"
                 id="tspan128">20</tspan></text>
</g><path
             d="m 546.668,1318.33 32.5,0"
             style="fill:none;stroke:#000000;stroke-opacity:1;stroke-width:5;stroke-linecap:butt;stroke-linejoin:round;stroke-miterlimit:10;stroke-dasharray:none"
             id="path130" /><path
             d="m 3805,1318.33 -33.33,0"
             style="fill:none;stroke:#000000;stroke-opacity:1;stroke-width:5;stroke-linecap:butt;stroke-linejoin:round;stroke-miterlimit:10;stroke-dasharray:none"
             id="path132" /><g
             id="g134"
             transform="scale(10,10)"><text
               transform="matrix(1,0,0,-1,40.6668,128.167)"
               id="text136"><tspan
                 style="fill:#000000;fill-opacity:1;fill-rule:nonzero;stroke:none;font-family:Helvetica;font-variant:normal;font-weight:normal;font-size:10;writing-mode:lr;-inkscape-font-specification:Helvetica"
                 x="0 5.56"
                 y="0"
                 sodipodi:role="line"
                 id="tspan138">25</tspan></text>
</g><path
             d="m 546.668,1639.17 32.5,0"
             style="fill:none;stroke:#000000;stroke-opacity:1;stroke-width:5;stroke-linecap:butt;stroke-linejoin:round;stroke-miterlimit:10;stroke-dasharray:none"
             id="path140" /><path
             d="m 3805,1639.17 -33.33,0"
             style="fill:none;stroke:#000000;stroke-opacity:1;stroke-width:5;stroke-linecap:butt;stroke-linejoin:round;stroke-miterlimit:10;stroke-dasharray:none"
             id="path142" /><g
             id="g144"
             transform="scale(10,10)"><text
               transform="matrix(1,0,0,-1,40.6668,160.25)"
               id="text146"><tspan
                 style="fill:#000000;fill-opacity:1;fill-rule:nonzero;stroke:none;font-family:Helvetica;font-variant:normal;font-weight:normal;font-size:10;writing-mode:lr;-inkscape-font-specification:Helvetica"
                 x="0 5.56"
                 y="0"
                 sodipodi:role="line"
                 id="tspan148">30</tspan></text>
</g><path
             d="m 546.668,1960.83 32.5,0"
             style="fill:none;stroke:#000000;stroke-opacity:1;stroke-width:5;stroke-linecap:butt;stroke-linejoin:round;stroke-miterlimit:10;stroke-dasharray:none"
             id="path150" /><path
             d="m 3805,1960.83 -33.33,0"
             style="fill:none;stroke:#000000;stroke-opacity:1;stroke-width:5;stroke-linecap:butt;stroke-linejoin:round;stroke-miterlimit:10;stroke-dasharray:none"
             id="path152" /><g
             id="g154"
             transform="scale(10,10)"><text
               transform="matrix(1,0,0,-1,40.6668,192.417)"
               id="text156"><tspan
                 style="fill:#000000;fill-opacity:1;fill-rule:nonzero;stroke:none;font-family:Helvetica;font-variant:normal;font-weight:normal;font-size:10;writing-mode:lr;-inkscape-font-specification:Helvetica"
                 x="0 5.56"
                 y="0"
                 sodipodi:role="line"
                 id="tspan158">35</tspan></text>
</g><path
             d="m 546.668,2281.67 32.5,0"
             style="fill:none;stroke:#000000;stroke-opacity:1;stroke-width:5;stroke-linecap:butt;stroke-linejoin:round;stroke-miterlimit:10;stroke-dasharray:none"
             id="path160" /><path
             d="m 3805,2281.67 -33.33,0"
             style="fill:none;stroke:#000000;stroke-opacity:1;stroke-width:5;stroke-linecap:butt;stroke-linejoin:round;stroke-miterlimit:10;stroke-dasharray:none"
             id="path162" /><g
             id="g164"
             transform="scale(10,10)"><text
               transform="matrix(1,0,0,-1,40.6668,224.5)"
               id="text166"><tspan
                 style="fill:#000000;fill-opacity:1;fill-rule:nonzero;stroke:none;font-family:Helvetica;font-variant:normal;font-weight:normal;font-size:10;writing-mode:lr;-inkscape-font-specification:Helvetica"
                 x="0 5.56"
                 y="0"
                 sodipodi:role="line"
                 id="tspan168">40</tspan></text>
</g><path
             d="m 546.668,2602.5 32.5,0"
             style="fill:none;stroke:#000000;stroke-opacity:1;stroke-width:5;stroke-linecap:butt;stroke-linejoin:round;stroke-miterlimit:10;stroke-dasharray:none"
             id="path170" /><path
             d="m 3805,2602.5 -33.33,0"
             style="fill:none;stroke:#000000;stroke-opacity:1;stroke-width:5;stroke-linecap:butt;stroke-linejoin:round;stroke-miterlimit:10;stroke-dasharray:none"
             id="path172" /><g
             id="g174"
             transform="scale(10,10)"><text
               transform="matrix(1,0,0,-1,40.6668,256.583)"
               id="text176"><tspan
                 style="fill:#000000;fill-opacity:1;fill-rule:nonzero;stroke:none;font-family:Helvetica;font-variant:normal;font-weight:normal;font-size:10;writing-mode:lr;-inkscape-font-specification:Helvetica"
                 x="0 5.56"
                 y="0"
                 sodipodi:role="line"
                 id="tspan178">45</tspan></text>
</g><path
             d="m 546.668,2923.33 32.5,0"
             style="fill:none;stroke:#000000;stroke-opacity:1;stroke-width:5;stroke-linecap:butt;stroke-linejoin:round;stroke-miterlimit:10;stroke-dasharray:none"
             id="path180" /><path
             d="m 3805,2923.33 -33.33,0"
             style="fill:none;stroke:#000000;stroke-opacity:1;stroke-width:5;stroke-linecap:butt;stroke-linejoin:round;stroke-miterlimit:10;stroke-dasharray:none"
             id="path182" /><g
             id="g184"
             transform="scale(10,10)"><text
               transform="matrix(1,0,0,-1,40.6668,288.667)"
               id="text186"><tspan
                 style="fill:#000000;fill-opacity:1;fill-rule:nonzero;stroke:none;font-family:Helvetica;font-variant:normal;font-weight:normal;font-size:10;writing-mode:lr;-inkscape-font-specification:Helvetica"
                 x="0 5.56"
                 y="0"
                 sodipodi:role="line"
                 id="tspan188">50</tspan></text>
</g><path
             d="m 546.668,2924.17 3258.332,0"
             style="fill:none;stroke:#000000;stroke-opacity:1;stroke-width:5;stroke-linecap:butt;stroke-linejoin:round;stroke-miterlimit:10;stroke-dasharray:none"
             id="path190" /><path
             d="M 546.668,355 3805,355"
             style="fill:none;stroke:#000000;stroke-opacity:1;stroke-width:5;stroke-linecap:butt;stroke-linejoin:round;stroke-miterlimit:10;stroke-dasharray:none"
             id="path192" /><path
             d="m 3805,355 0,2569.17"
             style="fill:none;stroke:#000000;stroke-opacity:1;stroke-width:5;stroke-linecap:butt;stroke-linejoin:round;stroke-miterlimit:10;stroke-dasharray:none"
             id="path194" /><path
             d="m 546.668,355 0,2569.17"
             style="fill:none;stroke:#000000;stroke-opacity:1;stroke-width:5;stroke-linecap:butt;stroke-linejoin:round;stroke-miterlimit:10;stroke-dasharray:none"
             id="path196" /></g></g><g
         id="g198"><g
           id="g200"
           clip-path="url(#clipPath202)"><path
             d="m 815,803.332 c 0,-1.379 -1.121,-2.5 -2.5,-2.5 -1.379,0 -2.5,1.121 -2.5,2.5 0,1.379 1.121,2.5 2.5,2.5 1.379,0 2.5,-1.121 2.5,-2.5"
             style="fill:#000000;fill-opacity:1;fill-rule:nonzero;stroke:none"
             id="path206" /></g></g><g
         id="g208"><g
           id="g210"
           clip-path="url(#clipPath212)"><path
             d="m 842.5,803.332 c 0,-16.566 -13.434,-30 -30,-30 -16.566,0 -30,13.434 -30,30 0,16.566 13.434,30 30,30 16.566,0 30,-13.434 30,-30"
             style="fill:#000000;fill-opacity:1;fill-rule:nonzero;stroke:none"
             id="path216" /><path
             d="m 842.5,803.332 c 0,-16.566 -13.434,-30 -30,-30 -16.566,0 -30,13.434 -30,30 0,16.566 13.434,30 30,30 16.566,0 30,-13.434 30,-30"
             style="fill:none;stroke:#000000;stroke-opacity:1;stroke-width:5;stroke-linecap:butt;stroke-linejoin:round;stroke-miterlimit:10;stroke-dasharray:none"
             id="path218" /></g></g><g
         id="g220"><g
           id="g222"
           clip-path="url(#clipPath224)"><path
             d="M 3741.67,665.832 2940.83,1120 2536.67,2132.5"
             style="fill:none;stroke:#000000;stroke-opacity:1;stroke-width:5;stroke-linecap:butt;stroke-linejoin:round;stroke-miterlimit:10;stroke-dasharray:none"
             id="path228" /></g></g><g
         id="g230"><g
           id="g232"
           clip-path="url(#clipPath234)"><path
             d="m 3717.5,641.668 48.332,0 0,48.332 -48.332,0 0,-48.332 z"
             style="fill:#000000;fill-opacity:1;fill-rule:evenodd;stroke:none"
             id="path238" /><path
             d="m 3717.5,641.668 48.332,0 0,48.332 -48.332,0 0,-48.332 z"
             style="fill:none;stroke:#000000;stroke-opacity:1;stroke-width:5;stroke-linecap:butt;stroke-linejoin:miter;stroke-miterlimit:10;stroke-dasharray:none"
             id="path240" /><path
             d="m 2916.67,1095.83 48.332,0 0,48.3359 -48.332,0 0,-48.3359 z"
             style="fill:#000000;fill-opacity:1;fill-rule:evenodd;stroke:none"
             id="path242" /><path
             d="m 2916.67,1095.83 48.332,0 0,48.3359 -48.332,0 0,-48.3359 z"
             style="fill:none;stroke:#000000;stroke-opacity:1;stroke-width:5;stroke-linecap:butt;stroke-linejoin:miter;stroke-miterlimit:10;stroke-dasharray:none"
             id="path244" /><path
             d="m 2512.5,2108.33 48.332,0 0,48.3359 -48.332,0 0,-48.3359 z"
             style="fill:#000000;fill-opacity:1;fill-rule:evenodd;stroke:none"
             id="path246" /><path
             d="m 2512.5,2108.33 48.332,0 0,48.3359 -48.332,0 0,-48.3359 z"
             style="fill:none;stroke:#000000;stroke-opacity:1;stroke-width:5;stroke-linecap:butt;stroke-linejoin:miter;stroke-miterlimit:10;stroke-dasharray:none"
             id="path248" /></g></g><g
         id="g250"><g
           id="g252"
           clip-path="url(#clipPath254)"><path
             d="M 1654.17,907.5 895.832,2248.33 555,2842.5"
             style="fill:none;stroke:#000000;stroke-opacity:1;stroke-width:5;stroke-linecap:butt;stroke-linejoin:round;stroke-miterlimit:10;stroke-dasharray:none"
             id="path258" /></g></g><g
         id="g260"><g
           id="g262"
           clip-path="url(#clipPath264)"><path
             d="m 1654.17,868.332 30,39.168 -30,39.168 -30,-39.168 30,-39.168"
             style="fill:#000000;fill-opacity:1;fill-rule:evenodd;stroke:none"
             id="path268" /><path
             d="m 1654.17,868.332 30,39.168 -30,39.168 -30,-39.168 30,-39.168 z"
             style="fill:none;stroke:#000000;stroke-opacity:1;stroke-width:5;stroke-linecap:butt;stroke-linejoin:miter;stroke-miterlimit:10;stroke-dasharray:none"
             id="path270" /><path
             d="m 895.832,2209.17 30,39.16 -30,39.17 -30,-39.17 30,-39.16"
             style="fill:#000000;fill-opacity:1;fill-rule:evenodd;stroke:none"
             id="path272" /><path
             d="m 895.832,2209.17 30,39.16 -30,39.17 -30,-39.17 30,-39.16 z"
             style="fill:none;stroke:#000000;stroke-opacity:1;stroke-width:5;stroke-linecap:butt;stroke-linejoin:miter;stroke-miterlimit:10;stroke-dasharray:none"
             id="path274" /><path
             d="m 555,2803.33 30,39.17 -30,39.17 -30,-39.17 30,-39.17"
             style="fill:#000000;fill-opacity:1;fill-rule:evenodd;stroke:none"
             id="path276" /><path
             d="m 555,2803.33 30,39.17 -30,39.17 -30,-39.17 30,-39.17 z"
             style="fill:none;stroke:#000000;stroke-opacity:1;stroke-width:5;stroke-linecap:butt;stroke-linejoin:miter;stroke-miterlimit:10;stroke-dasharray:none"
             id="path278" /></g></g><g
         id="g280"><g
           id="g282"
           clip-path="url(#clipPath284)"><path
             d="M 1240,606.668 1127.5,620.832 1071.67,735 1044.17,901.668"
             style="fill:none;stroke:#000000;stroke-opacity:1;stroke-width:5;stroke-linecap:butt;stroke-linejoin:round;stroke-miterlimit:10;stroke-dasharray:none"
             id="path288" /></g></g><g
         id="g290"><g
           id="g292"
           clip-path="url(#clipPath294)"><path
             d="m 1205.83,586.668 68.34,0 -34.17,59.164 -34.17,-59.164"
             style="fill:#000000;fill-opacity:1;fill-rule:evenodd;stroke:none"
             id="path298" /><path
             d="m 1205.83,586.668 68.34,0 -34.17,59.164 -34.17,-59.164 z"
             style="fill:none;stroke:#000000;stroke-opacity:1;stroke-width:5;stroke-linecap:butt;stroke-linejoin:miter;stroke-miterlimit:10;stroke-dasharray:none"
             id="path300" /><path
             d="m 1093.33,600.832 68.34,0 -34.17,59.168 -34.17,-59.168"
             style="fill:#000000;fill-opacity:1;fill-rule:evenodd;stroke:none"
             id="path302" /><path
             d="m 1093.33,600.832 68.34,0 -34.17,59.168 -34.17,-59.168 z"
             style="fill:none;stroke:#000000;stroke-opacity:1;stroke-width:5;stroke-linecap:butt;stroke-linejoin:miter;stroke-miterlimit:10;stroke-dasharray:none"
             id="path304" /><path
             d="m 1037.5,715 68.33,0 -34.16,59.168 L 1037.5,715"
             style="fill:#000000;fill-opacity:1;fill-rule:evenodd;stroke:none"
             id="path306" /><path
             d="m 1037.5,715 68.33,0 -34.16,59.168 L 1037.5,715 z"
             style="fill:none;stroke:#000000;stroke-opacity:1;stroke-width:5;stroke-linecap:butt;stroke-linejoin:miter;stroke-miterlimit:10;stroke-dasharray:none"
             id="path308" /><path
             d="m 1010,881.668 68.33,0 -34.16,59.164 -34.17,-59.164"
             style="fill:#000000;fill-opacity:1;fill-rule:evenodd;stroke:none"
             id="path310" /><path
             d="m 1010,881.668 68.33,0 -34.16,59.164 -34.17,-59.164 z"
             style="fill:none;stroke:#000000;stroke-opacity:1;stroke-width:5;stroke-linecap:butt;stroke-linejoin:miter;stroke-miterlimit:10;stroke-dasharray:none"
             id="path312" /></g></g><g
         id="g314"><g
           id="g316"
           clip-path="url(#clipPath318)"><g
             id="g322"
             transform="scale(10,10)"><text
               transform="matrix(1,0,0,-1,178.167,274)"
               id="text324"><tspan
                 style="fill:#000000;fill-opacity:1;fill-rule:nonzero;stroke:none;font-family:Helvetica;font-variant:normal;font-weight:normal;font-size:10;writing-mode:lr;-inkscape-font-specification:Helvetica"
                 x="0 5.56 7.78 13.34 15.56"
                 y="0"
                 sodipodi:role="line"
                 id="tspan326">bible</tspan><tspan
                 style="fill:#000000;fill-opacity:1;fill-rule:nonzero;stroke:none;font-family:Helvetica;font-variant:normal;font-weight:normal;font-size:10;writing-mode:lr;-inkscape-font-specification:Helvetica"
                 x="0.25 7.47 13.03 21.36 26.92 30.25 35.81 40.81 45.81 48.03 53.59 59.15 61.93 64.71 73.6 76.38"
                 y="262.5"
                 sodipodi:role="line"
                 id="tspan328">Compression [%] </tspan></text>
<text
               transform="matrix(0,1,1,0,33.8332,143.417)"
               id="text330"><tspan
                 style="fill:#000000;fill-opacity:1;fill-rule:nonzero;stroke:none;font-family:Helvetica;font-variant:normal;font-weight:normal;font-size:10;writing-mode:lr;-inkscape-font-specification:Helvetica"
                 x="0 6.11 8.33 16.66 22.22 25 27.78 33.34 38.34"
                 y="0"
                 sodipodi:role="line"
                 id="tspan332">Time [us]</tspan></text>
</g><path
             d="m 2725.83,2349.17 1009.17,0 0,521.664 -1009.17,0 0,-521.664 z"
             style="fill:#ffffff;fill-opacity:1;fill-rule:evenodd;stroke:none"
             id="path334" /><path
             d="m 2725.83,2349.17 0,521.66 1009.17,0 0,-521.66 -1009.17,0"
             style="fill:none;stroke:#ffffff;stroke-opacity:1;stroke-width:5;stroke-linecap:butt;stroke-linejoin:round;stroke-miterlimit:10;stroke-dasharray:none"
             id="path336" /><path
             d="m 2725.83,2870.83 1009.17,0"
             style="fill:none;stroke:#000000;stroke-opacity:1;stroke-width:5;stroke-linecap:butt;stroke-linejoin:round;stroke-miterlimit:10;stroke-dasharray:none"
             id="path338" /><path
             d="m 2725.83,2349.17 1009.17,0"
             style="fill:none;stroke:#000000;stroke-opacity:1;stroke-width:5;stroke-linecap:butt;stroke-linejoin:round;stroke-miterlimit:10;stroke-dasharray:none"
             id="path340" /><path
             d="m 3735,2349.17 0,521.66"
             style="fill:none;stroke:#000000;stroke-opacity:1;stroke-width:5;stroke-linecap:butt;stroke-linejoin:round;stroke-miterlimit:10;stroke-dasharray:none"
             id="path342" /><path
             d="m 2725.83,2349.17 0,521.66"
             style="fill:none;stroke:#000000;stroke-opacity:1;stroke-width:5;stroke-linecap:butt;stroke-linejoin:round;stroke-miterlimit:10;stroke-dasharray:none"
             id="path344" /><path
             d="m 2725.83,2349.17 1009.17,0"
             style="fill:none;stroke:#000000;stroke-opacity:1;stroke-width:5;stroke-linecap:butt;stroke-linejoin:round;stroke-miterlimit:10;stroke-dasharray:none"
             id="path346" /><path
             d="m 2725.83,2349.17 0,521.66"
             style="fill:none;stroke:#000000;stroke-opacity:1;stroke-width:5;stroke-linecap:butt;stroke-linejoin:round;stroke-miterlimit:10;stroke-dasharray:none"
             id="path348" /><path
             d="m 2725.83,2870.83 1009.17,0"
             style="fill:none;stroke:#000000;stroke-opacity:1;stroke-width:5;stroke-linecap:butt;stroke-linejoin:round;stroke-miterlimit:10;stroke-dasharray:none"
             id="path350" /><path
             d="m 2725.83,2349.17 1009.17,0"
             style="fill:none;stroke:#000000;stroke-opacity:1;stroke-width:5;stroke-linecap:butt;stroke-linejoin:round;stroke-miterlimit:10;stroke-dasharray:none"
             id="path352" /><path
             d="m 3735,2349.17 0,521.66"
             style="fill:none;stroke:#000000;stroke-opacity:1;stroke-width:5;stroke-linecap:butt;stroke-linejoin:round;stroke-miterlimit:10;stroke-dasharray:none"
             id="path354" /><path
             d="m 2725.83,2349.17 0,521.66"
             style="fill:none;stroke:#000000;stroke-opacity:1;stroke-width:5;stroke-linecap:butt;stroke-linejoin:round;stroke-miterlimit:10;stroke-dasharray:none"
             id="path356" /><g
             id="g358"
             transform="scale(10,10)"><text
               transform="matrix(1,0,0,-1,313,275.917)"
               id="text360"><tspan
                 style="fill:#000000;fill-opacity:1;fill-rule:nonzero;stroke:none;font-family:Helvetica;font-variant:normal;font-weight:normal;font-size:10;writing-mode:lr;-inkscape-font-specification:Helvetica"
                 x="0 6.11 14.44 20.28 26.95 32.51 38.07 43.63 46.41 48.63 53.63"
                 y="0"
                 sodipodi:role="line"
                 id="tspan362">FM−Adaptive</tspan></text>
</g></g></g><g
         id="g364"><g
           id="g366"
           clip-path="url(#clipPath368)"><path
             d="m 2787.5,2794.17 310.83,0"
             style="fill:none;stroke:#000000;stroke-opacity:1;stroke-width:5;stroke-linecap:butt;stroke-linejoin:round;stroke-miterlimit:10;stroke-dasharray:none"
             id="path372" /></g></g><g
         id="g374"><g
           id="g376"
           clip-path="url(#clipPath378)"><path
             d="m 2972.5,2794.17 c 0,-16.57 -13.43,-30 -30,-30 -16.57,0 -30,13.43 -30,30 0,16.56 13.43,30 30,30 16.57,0 30,-13.44 30,-30"
             style="fill:#000000;fill-opacity:1;fill-rule:nonzero;stroke:none"
             id="path382" /><path
             d="m 2972.5,2794.17 c 0,-16.57 -13.43,-30 -30,-30 -16.57,0 -30,13.43 -30,30 0,16.56 13.43,30 30,30 16.57,0 30,-13.44 30,-30"
             style="fill:none;stroke:#000000;stroke-opacity:1;stroke-width:5;stroke-linecap:butt;stroke-linejoin:round;stroke-miterlimit:10;stroke-dasharray:none"
             id="path384" /></g></g><g
         id="g386"><g
           id="g388"
           clip-path="url(#clipPath390)"><g
             id="g394"
             transform="scale(10,10)"><text
               transform="matrix(1,0,0,-1,313,263.583)"
               id="text396"><tspan
                 style="fill:#000000;fill-opacity:1;fill-rule:nonzero;stroke:none;font-family:Helvetica;font-variant:normal;font-weight:normal;font-size:10;writing-mode:lr;-inkscape-font-specification:Helvetica"
                 x="0 7.22 12.78 20 26.67"
                 y="0"
                 sodipodi:role="line"
                 id="tspan398">RLCSA</tspan></text>
</g></g></g><g
         id="g400"><g
           id="g402"
           clip-path="url(#clipPath404)"><path
             d="m 2787.5,2671.67 310.83,0"
             style="fill:none;stroke:#000000;stroke-opacity:1;stroke-width:5;stroke-linecap:butt;stroke-linejoin:round;stroke-miterlimit:10;stroke-dasharray:none"
             id="path408" /></g></g><g
         id="g410"><g
           id="g412"
           clip-path="url(#clipPath414)"><path
             d="m 2918.33,2647.5 48.3359,0 0,48.332 -48.3359,0 0,-48.332 z"
             style="fill:#000000;fill-opacity:1;fill-rule:evenodd;stroke:none"
             id="path418" /><path
             d="m 2918.33,2647.5 48.3359,0 0,48.332 -48.3359,0 0,-48.332 z"
             style="fill:none;stroke:#000000;stroke-opacity:1;stroke-width:5;stroke-linecap:butt;stroke-linejoin:miter;stroke-miterlimit:10;stroke-dasharray:none"
             id="path420" /></g></g><g
         id="g422"><g
           id="g424"
           clip-path="url(#clipPath426)"><g
             id="g430"
             transform="scale(10,10)"><text
               transform="matrix(1,0,0,-1,313,251.333)"
               id="text432"><tspan
                 style="fill:#000000;fill-opacity:1;fill-rule:nonzero;stroke:none;font-family:Helvetica;font-variant:normal;font-weight:normal;font-size:10;writing-mode:lr;-inkscape-font-specification:Helvetica"
                 x="0 6.11 14.44 20.28 27.5 34.72"
                 y="0"
                 sodipodi:role="line"
                 id="tspan434">FM−RRR</tspan></text>
</g></g></g><g
         id="g436"><g
           id="g438"
           clip-path="url(#clipPath440)"><path
             d="m 2787.5,2549.17 310.83,0"
             style="fill:none;stroke:#000000;stroke-opacity:1;stroke-width:5;stroke-linecap:butt;stroke-linejoin:round;stroke-miterlimit:10;stroke-dasharray:none"
             id="path444" /></g></g><g
         id="g446"><g
           id="g448"
           clip-path="url(#clipPath450)"><path
             d="m 2942.5,2510 30,39.17 -30,39.16 -30,-39.16 30,-39.17"
             style="fill:#000000;fill-opacity:1;fill-rule:evenodd;stroke:none"
             id="path454" /><path
             d="m 2942.5,2510 30,39.17 -30,39.16 -30,-39.16 30,-39.17 z"
             style="fill:none;stroke:#000000;stroke-opacity:1;stroke-width:5;stroke-linecap:butt;stroke-linejoin:miter;stroke-miterlimit:10;stroke-dasharray:none"
             id="path456" /></g></g><g
         id="g458"><g
           id="g460"
           clip-path="url(#clipPath462)"><g
             id="g466"
             transform="scale(10,10)"><text
               transform="matrix(1,0,0,-1,313,239)"
               id="text468"><tspan
                 style="fill:#000000;fill-opacity:1;fill-rule:nonzero;stroke:none;font-family:Helvetica;font-variant:normal;font-weight:normal;font-size:10;writing-mode:lr;-inkscape-font-specification:Helvetica"
                 x="0 6.11 14.44 20.28 27.5 32.5 38.06 41.39 43.61"
                 y="0"
                 sodipodi:role="line"
                 id="tspan470">FM−Hybrid</tspan></text>
</g></g></g><g
         id="g472"><g
           id="g474"
           clip-path="url(#clipPath476)"><path
             d="m 2787.5,2426.67 310.83,0"
             style="fill:none;stroke:#000000;stroke-opacity:1;stroke-width:5;stroke-linecap:butt;stroke-linejoin:round;stroke-miterlimit:10;stroke-dasharray:none"
             id="path480" /></g></g><g
         id="g482"><g
           id="g484"
           clip-path="url(#clipPath486)"><path
             d="m 2908.33,2406.67 68.34,0 -34.17,59.16 -34.17,-59.16"
             style="fill:#000000;fill-opacity:1;fill-rule:evenodd;stroke:none"
             id="path490" /><path
             d="m 2908.33,2406.67 68.34,0 -34.17,59.16 -34.17,-59.16 z"
             style="fill:none;stroke:#000000;stroke-opacity:1;stroke-width:5;stroke-linecap:butt;stroke-linejoin:miter;stroke-miterlimit:10;stroke-dasharray:none"
             id="path492" /></g></g></g></g></svg>