<?xml version="1.0" encoding="UTF-8" standalone="no"?>
<!-- Created with Inkscape (http://www.inkscape.org/) -->

<svg
   xmlns:dc="http://purl.org/dc/elements/1.1/"
   xmlns:cc="http://creativecommons.org/ns#"
   xmlns:rdf="http://www.w3.org/1999/02/22-rdf-syntax-ns#"
   xmlns:svg="http://www.w3.org/2000/svg"
   xmlns="http://www.w3.org/2000/svg"
   version="1.1"
   width="525"
   height="395"
   id="svg2"
   xml:space="preserve"><metadata
     id="metadata8"><rdf:RDF><cc:Work
         rdf:about=""><dc:format>image/svg+xml</dc:format><dc:type
           rdf:resource="http://purl.org/dc/dcmitype/StillImage" /><dc:title></dc:title></cc:Work></rdf:RDF></metadata><defs
     id="defs6"><clipPath
       id="clipPath18"><path
         d="m 0,8.33203 4200,0 0,3151.66997 -4200,0 L 0,8.33203 z"
         id="path20" /></clipPath><clipPath
       id="clipPath202"><path
         d="m 546.668,2923.33 3259.162,0 0,-2569.162 -3259.162,0 0,2569.162 z"
         id="path204" /></clipPath><clipPath
       id="clipPath212"><path
         d="m 799.168,1079.17 122.5,0 0,-122.502 -122.5,0 0,122.502 z"
         id="path214" /></clipPath><clipPath
       id="clipPath224"><path
         d="m 546.668,2923.33 3259.162,0 0,-2569.162 -3259.162,0 0,2569.162 z"
         id="path226" /></clipPath><clipPath
       id="clipPath234"><path
         d="m 678.332,1164.17 200.836,0 0,-688.338 -200.836,0 0,688.338 z"
         id="path236" /></clipPath><clipPath
       id="clipPath254"><path
         d="m 546.668,2923.33 3259.162,0 0,-2569.162 -3259.162,0 0,2569.162 z"
         id="path256" /></clipPath><clipPath
       id="clipPath264"><path
         d="m 2363.33,2725.83 1444.17,0 0,-1416.66 -1444.17,0 0,1416.66 z"
         id="path266" /></clipPath><clipPath
       id="clipPath284"><path
         d="m 546.668,2923.33 3259.162,0 0,-2569.162 -3259.162,0 0,2569.162 z"
         id="path286" /></clipPath><clipPath
       id="clipPath294"><path
         d="m 803.332,1015 363.338,0 0,-553.332 -363.338,0 0,553.332 z"
         id="path296" /></clipPath><clipPath
       id="clipPath318"><path
         d="m 0,8 0,3152 4200,0 L 4200,8 0,8 z"
         id="path320" /></clipPath><clipPath
       id="clipPath368"><path
         d="m 2725.83,929.168 1010,0 0,-522.5 -1010,0 0,522.5 z"
         id="path370" /></clipPath><clipPath
       id="clipPath378"><path
         d="m 2881.67,913.332 122.5,0 0,-122.5 -122.5,0 0,122.5 z"
         id="path380" /></clipPath><clipPath
       id="clipPath390"><path
         d="m 0,8 0,3152 4200,0 L 4200,8 0,8 z"
         id="path392" /></clipPath><clipPath
       id="clipPath404"><path
         d="m 2725.83,929.168 1010,0 0,-522.5 -1010,0 0,522.5 z"
         id="path406" /></clipPath><clipPath
       id="clipPath414"><path
         d="m 2881.67,790.832 122.5,0 0,-122.5 -122.5,0 0,122.5 z"
         id="path416" /></clipPath><clipPath
       id="clipPath426"><path
         d="m 0,8 0,3152 4200,0 L 4200,8 0,8 z"
         id="path428" /></clipPath><clipPath
       id="clipPath440"><path
         d="m 2725.83,929.168 1010,0 0,-522.5 -1010,0 0,522.5 z"
         id="path442" /></clipPath><clipPath
       id="clipPath450"><path
         d="m 2881.67,668.332 122.5,0 0,-122.5 -122.5,0 0,122.5 z"
         id="path452" /></clipPath><clipPath
       id="clipPath462"><path
         d="m 0,8 0,3152 4200,0 L 4200,8 0,8 z"
         id="path464" /></clipPath><clipPath
       id="clipPath476"><path
         d="m 2725.83,929.168 1010,0 0,-522.5 -1010,0 0,522.5 z"
         id="path478" /></clipPath><clipPath
       id="clipPath486"><path
         d="m 2881.67,545.832 122.5,0 0,-122.5 -122.5,0 0,122.5 z"
         id="path488" /></clipPath></defs><g
     transform="matrix(1.25,0,0,-1.25,0,395)"
     id="g10"><g
       transform="scale(0.1,0.1)"
       id="g12"><g
         id="g14"><g
           clip-path="url(#clipPath18)"
           id="g16"><path
             d="m 0,8.33203 4200,0 0,3151.66997 -4200,0 L 0,8.33203 z"
             id="path22"
             style="fill:#ffffff;fill-opacity:1;fill-rule:nonzero;stroke:none" /><path
             d="m 546.668,355 3258.33,0 0,2569.17 -3258.33,0 0,-2569.17 z"
             id="path24"
             style="fill:#ffffff;fill-opacity:1;fill-rule:evenodd;stroke:none" /><path
             d="m 546.668,355 0,2569.17 3258.332,0 0,-2569.17 -3258.332,0"
             id="path26"
             style="fill:none;stroke:#ffffff;stroke-width:5;stroke-linecap:butt;stroke-linejoin:round;stroke-miterlimit:10;stroke-opacity:1;stroke-dasharray:none" /><path
             d="m 546.668,2924.17 3258.332,0"
             id="path28"
             style="fill:none;stroke:#000000;stroke-width:5;stroke-linecap:butt;stroke-linejoin:round;stroke-miterlimit:10;stroke-opacity:1;stroke-dasharray:none" /><path
             d="M 546.668,355 3805,355"
             id="path30"
             style="fill:none;stroke:#000000;stroke-width:5;stroke-linecap:butt;stroke-linejoin:round;stroke-miterlimit:10;stroke-opacity:1;stroke-dasharray:none" /><path
             d="m 3805,355 0,2569.17"
             id="path32"
             style="fill:none;stroke:#000000;stroke-width:5;stroke-linecap:butt;stroke-linejoin:round;stroke-miterlimit:10;stroke-opacity:1;stroke-dasharray:none" /><path
             d="m 546.668,355 0,2569.17"
             id="path34"
             style="fill:none;stroke:#000000;stroke-width:5;stroke-linecap:butt;stroke-linejoin:round;stroke-miterlimit:10;stroke-opacity:1;stroke-dasharray:none" /><path
             d="M 546.668,355 3805,355"
             id="path36"
             style="fill:none;stroke:#000000;stroke-width:5;stroke-linecap:butt;stroke-linejoin:round;stroke-miterlimit:10;stroke-opacity:1;stroke-dasharray:none" /><path
             d="m 546.668,355 0,2569.17"
             id="path38"
             style="fill:none;stroke:#000000;stroke-width:5;stroke-linecap:butt;stroke-linejoin:round;stroke-miterlimit:10;stroke-opacity:1;stroke-dasharray:none" /><path
             d="m 546.668,355 0,33.332"
             id="path40"
             style="fill:none;stroke:#000000;stroke-width:5;stroke-linecap:butt;stroke-linejoin:round;stroke-miterlimit:10;stroke-opacity:1;stroke-dasharray:none" /><path
             d="m 546.668,2923.33 0,-32.5"
             id="path42"
             style="fill:none;stroke:#000000;stroke-width:5;stroke-linecap:butt;stroke-linejoin:round;stroke-miterlimit:10;stroke-opacity:1;stroke-dasharray:none" /><g
             transform="scale(10,10)"
             id="g44"><text
               transform="matrix(1,0,0,-1,51.9168,23.4168)"
               id="text46"><tspan
                 x="0"
                 y="0"
                 id="tspan48"
                 style="font-size:10px;font-variant:normal;font-weight:normal;writing-mode:lr-tb;fill:#000000;fill-opacity:1;fill-rule:nonzero;stroke:none;font-family:Helvetica;-inkscape-font-specification:Helvetica">5</tspan></text>
</g><path
             d="m 1198.33,355 0,33.332"
             id="path50"
             style="fill:none;stroke:#000000;stroke-width:5;stroke-linecap:butt;stroke-linejoin:round;stroke-miterlimit:10;stroke-opacity:1;stroke-dasharray:none" /><path
             d="m 1198.33,2923.33 0,-32.5"
             id="path52"
             style="fill:none;stroke:#000000;stroke-width:5;stroke-linecap:butt;stroke-linejoin:round;stroke-miterlimit:10;stroke-opacity:1;stroke-dasharray:none" /><g
             transform="scale(10,10)"
             id="g54"><text
               transform="matrix(1,0,0,-1,114.333,23.4168)"
               id="text56"><tspan
                 x="0 5.5599999"
                 y="0"
                 id="tspan58"
                 style="font-size:10px;font-variant:normal;font-weight:normal;writing-mode:lr-tb;fill:#000000;fill-opacity:1;fill-rule:nonzero;stroke:none;font-family:Helvetica;-inkscape-font-specification:Helvetica">10</tspan></text>
</g><path
             d="m 1850,355 0,33.332"
             id="path60"
             style="fill:none;stroke:#000000;stroke-width:5;stroke-linecap:butt;stroke-linejoin:round;stroke-miterlimit:10;stroke-opacity:1;stroke-dasharray:none" /><path
             d="m 1850,2923.33 0,-32.5"
             id="path62"
             style="fill:none;stroke:#000000;stroke-width:5;stroke-linecap:butt;stroke-linejoin:round;stroke-miterlimit:10;stroke-opacity:1;stroke-dasharray:none" /><g
             transform="scale(10,10)"
             id="g64"><text
               transform="matrix(1,0,0,-1,179.5,23.4168)"
               id="text66"><tspan
                 x="0 5.5599999"
                 y="0"
                 id="tspan68"
                 style="font-size:10px;font-variant:normal;font-weight:normal;writing-mode:lr-tb;fill:#000000;fill-opacity:1;fill-rule:nonzero;stroke:none;font-family:Helvetica;-inkscape-font-specification:Helvetica">15</tspan></text>
</g><path
             d="m 2501.67,355 0,33.332"
             id="path70"
             style="fill:none;stroke:#000000;stroke-width:5;stroke-linecap:butt;stroke-linejoin:round;stroke-miterlimit:10;stroke-opacity:1;stroke-dasharray:none" /><path
             d="m 2501.67,2923.33 0,-32.5"
             id="path72"
             style="fill:none;stroke:#000000;stroke-width:5;stroke-linecap:butt;stroke-linejoin:round;stroke-miterlimit:10;stroke-opacity:1;stroke-dasharray:none" /><g
             transform="scale(10,10)"
             id="g74"><text
               transform="matrix(1,0,0,-1,244.667,23.4168)"
               id="text76"><tspan
                 x="0 5.5599999"
                 y="0"
                 id="tspan78"
                 style="font-size:10px;font-variant:normal;font-weight:normal;writing-mode:lr-tb;fill:#000000;fill-opacity:1;fill-rule:nonzero;stroke:none;font-family:Helvetica;-inkscape-font-specification:Helvetica">20</tspan></text>
</g><path
             d="m 3153.33,355 0,33.332"
             id="path80"
             style="fill:none;stroke:#000000;stroke-width:5;stroke-linecap:butt;stroke-linejoin:round;stroke-miterlimit:10;stroke-opacity:1;stroke-dasharray:none" /><path
             d="m 3153.33,2923.33 0,-32.5"
             id="path82"
             style="fill:none;stroke:#000000;stroke-width:5;stroke-linecap:butt;stroke-linejoin:round;stroke-miterlimit:10;stroke-opacity:1;stroke-dasharray:none" /><g
             transform="scale(10,10)"
             id="g84"><text
               transform="matrix(1,0,0,-1,309.833,23.4168)"
               id="text86"><tspan
                 x="0 5.5599999"
                 y="0"
                 id="tspan88"
                 style="font-size:10px;font-variant:normal;font-weight:normal;writing-mode:lr-tb;fill:#000000;fill-opacity:1;fill-rule:nonzero;stroke:none;font-family:Helvetica;-inkscape-font-specification:Helvetica">25</tspan></text>
</g><path
             d="m 3805,355 0,33.332"
             id="path90"
             style="fill:none;stroke:#000000;stroke-width:5;stroke-linecap:butt;stroke-linejoin:round;stroke-miterlimit:10;stroke-opacity:1;stroke-dasharray:none" /><path
             d="m 3805,2923.33 0,-32.5"
             id="path92"
             style="fill:none;stroke:#000000;stroke-width:5;stroke-linecap:butt;stroke-linejoin:round;stroke-miterlimit:10;stroke-opacity:1;stroke-dasharray:none" /><g
             transform="scale(10,10)"
             id="g94"><text
               transform="matrix(1,0,0,-1,375,23.4168)"
               id="text96"><tspan
                 x="0 5.5599999"
                 y="0"
                 id="tspan98"
                 style="font-size:10px;font-variant:normal;font-weight:normal;writing-mode:lr-tb;fill:#000000;fill-opacity:1;fill-rule:nonzero;stroke:none;font-family:Helvetica;-inkscape-font-specification:Helvetica">30</tspan></text>
</g><path
             d="m 546.668,355 32.5,0"
             id="path100"
             style="fill:none;stroke:#000000;stroke-width:5;stroke-linecap:butt;stroke-linejoin:round;stroke-miterlimit:10;stroke-opacity:1;stroke-dasharray:none" /><path
             d="m 3805,355 -33.33,0"
             id="path102"
             style="fill:none;stroke:#000000;stroke-width:5;stroke-linecap:butt;stroke-linejoin:round;stroke-miterlimit:10;stroke-opacity:1;stroke-dasharray:none" /><g
             transform="scale(10,10)"
             id="g104"><text
               transform="matrix(1,0,0,-1,40.6668,31.8332)"
               id="text106"><tspan
                 x="0 5.5599999"
                 y="0"
                 id="tspan108"
                 style="font-size:10px;font-variant:normal;font-weight:normal;writing-mode:lr-tb;fill:#000000;fill-opacity:1;fill-rule:nonzero;stroke:none;font-family:Helvetica;-inkscape-font-specification:Helvetica">15</tspan></text>
</g><path
             d="m 546.668,676.668 32.5,0"
             id="path110"
             style="fill:none;stroke:#000000;stroke-width:5;stroke-linecap:butt;stroke-linejoin:round;stroke-miterlimit:10;stroke-opacity:1;stroke-dasharray:none" /><path
             d="m 3805,676.668 -33.33,0"
             id="path112"
             style="fill:none;stroke:#000000;stroke-width:5;stroke-linecap:butt;stroke-linejoin:round;stroke-miterlimit:10;stroke-opacity:1;stroke-dasharray:none" /><g
             transform="scale(10,10)"
             id="g114"><text
               transform="matrix(1,0,0,-1,40.6668,64)"
               id="text116"><tspan
                 x="0 5.5599999"
                 y="0"
                 id="tspan118"
                 style="font-size:10px;font-variant:normal;font-weight:normal;writing-mode:lr-tb;fill:#000000;fill-opacity:1;fill-rule:nonzero;stroke:none;font-family:Helvetica;-inkscape-font-specification:Helvetica">20</tspan></text>
</g><path
             d="m 546.668,997.5 32.5,0"
             id="path120"
             style="fill:none;stroke:#000000;stroke-width:5;stroke-linecap:butt;stroke-linejoin:round;stroke-miterlimit:10;stroke-opacity:1;stroke-dasharray:none" /><path
             d="m 3805,997.5 -33.33,0"
             id="path122"
             style="fill:none;stroke:#000000;stroke-width:5;stroke-linecap:butt;stroke-linejoin:round;stroke-miterlimit:10;stroke-opacity:1;stroke-dasharray:none" /><g
             transform="scale(10,10)"
             id="g124"><text
               transform="matrix(1,0,0,-1,40.6668,96.0832)"
               id="text126"><tspan
                 x="0 5.5599999"
                 y="0"
                 id="tspan128"
                 style="font-size:10px;font-variant:normal;font-weight:normal;writing-mode:lr-tb;fill:#000000;fill-opacity:1;fill-rule:nonzero;stroke:none;font-family:Helvetica;-inkscape-font-specification:Helvetica">25</tspan></text>
</g><path
             d="m 546.668,1318.33 32.5,0"
             id="path130"
             style="fill:none;stroke:#000000;stroke-width:5;stroke-linecap:butt;stroke-linejoin:round;stroke-miterlimit:10;stroke-opacity:1;stroke-dasharray:none" /><path
             d="m 3805,1318.33 -33.33,0"
             id="path132"
             style="fill:none;stroke:#000000;stroke-width:5;stroke-linecap:butt;stroke-linejoin:round;stroke-miterlimit:10;stroke-opacity:1;stroke-dasharray:none" /><g
             transform="scale(10,10)"
             id="g134"><text
               transform="matrix(1,0,0,-1,40.6668,128.167)"
               id="text136"><tspan
                 x="0 5.5599999"
                 y="0"
                 id="tspan138"
                 style="font-size:10px;font-variant:normal;font-weight:normal;writing-mode:lr-tb;fill:#000000;fill-opacity:1;fill-rule:nonzero;stroke:none;font-family:Helvetica;-inkscape-font-specification:Helvetica">30</tspan></text>
</g><path
             d="m 546.668,1639.17 32.5,0"
             id="path140"
             style="fill:none;stroke:#000000;stroke-width:5;stroke-linecap:butt;stroke-linejoin:round;stroke-miterlimit:10;stroke-opacity:1;stroke-dasharray:none" /><path
             d="m 3805,1639.17 -33.33,0"
             id="path142"
             style="fill:none;stroke:#000000;stroke-width:5;stroke-linecap:butt;stroke-linejoin:round;stroke-miterlimit:10;stroke-opacity:1;stroke-dasharray:none" /><g
             transform="scale(10,10)"
             id="g144"><text
               transform="matrix(1,0,0,-1,40.6668,160.25)"
               id="text146"><tspan
                 x="0 5.5599999"
                 y="0"
                 id="tspan148"
                 style="font-size:10px;font-variant:normal;font-weight:normal;writing-mode:lr-tb;fill:#000000;fill-opacity:1;fill-rule:nonzero;stroke:none;font-family:Helvetica;-inkscape-font-specification:Helvetica">35</tspan></text>
</g><path
             d="m 546.668,1960.83 32.5,0"
             id="path150"
             style="fill:none;stroke:#000000;stroke-width:5;stroke-linecap:butt;stroke-linejoin:round;stroke-miterlimit:10;stroke-opacity:1;stroke-dasharray:none" /><path
             d="m 3805,1960.83 -33.33,0"
             id="path152"
             style="fill:none;stroke:#000000;stroke-width:5;stroke-linecap:butt;stroke-linejoin:round;stroke-miterlimit:10;stroke-opacity:1;stroke-dasharray:none" /><g
             transform="scale(10,10)"
             id="g154"><text
               transform="matrix(1,0,0,-1,40.6668,192.417)"
               id="text156"><tspan
                 x="0 5.5599999"
                 y="0"
                 id="tspan158"
                 style="font-size:10px;font-variant:normal;font-weight:normal;writing-mode:lr-tb;fill:#000000;fill-opacity:1;fill-rule:nonzero;stroke:none;font-family:Helvetica;-inkscape-font-specification:Helvetica">40</tspan></text>
</g><path
             d="m 546.668,2281.67 32.5,0"
             id="path160"
             style="fill:none;stroke:#000000;stroke-width:5;stroke-linecap:butt;stroke-linejoin:round;stroke-miterlimit:10;stroke-opacity:1;stroke-dasharray:none" /><path
             d="m 3805,2281.67 -33.33,0"
             id="path162"
             style="fill:none;stroke:#000000;stroke-width:5;stroke-linecap:butt;stroke-linejoin:round;stroke-miterlimit:10;stroke-opacity:1;stroke-dasharray:none" /><g
             transform="scale(10,10)"
             id="g164"><text
               transform="matrix(1,0,0,-1,40.6668,224.5)"
               id="text166"><tspan
                 x="0 5.5599999"
                 y="0"
                 id="tspan168"
                 style="font-size:10px;font-variant:normal;font-weight:normal;writing-mode:lr-tb;fill:#000000;fill-opacity:1;fill-rule:nonzero;stroke:none;font-family:Helvetica;-inkscape-font-specification:Helvetica">45</tspan></text>
</g><path
             d="m 546.668,2602.5 32.5,0"
             id="path170"
             style="fill:none;stroke:#000000;stroke-width:5;stroke-linecap:butt;stroke-linejoin:round;stroke-miterlimit:10;stroke-opacity:1;stroke-dasharray:none" /><path
             d="m 3805,2602.5 -33.33,0"
             id="path172"
             style="fill:none;stroke:#000000;stroke-width:5;stroke-linecap:butt;stroke-linejoin:round;stroke-miterlimit:10;stroke-opacity:1;stroke-dasharray:none" /><g
             transform="scale(10,10)"
             id="g174"><text
               transform="matrix(1,0,0,-1,40.6668,256.583)"
               id="text176"><tspan
                 x="0 5.5599999"
                 y="0"
                 id="tspan178"
                 style="font-size:10px;font-variant:normal;font-weight:normal;writing-mode:lr-tb;fill:#000000;fill-opacity:1;fill-rule:nonzero;stroke:none;font-family:Helvetica;-inkscape-font-specification:Helvetica">50</tspan></text>
</g><path
             d="m 546.668,2923.33 32.5,0"
             id="path180"
             style="fill:none;stroke:#000000;stroke-width:5;stroke-linecap:butt;stroke-linejoin:round;stroke-miterlimit:10;stroke-opacity:1;stroke-dasharray:none" /><path
             d="m 3805,2923.33 -33.33,0"
             id="path182"
             style="fill:none;stroke:#000000;stroke-width:5;stroke-linecap:butt;stroke-linejoin:round;stroke-miterlimit:10;stroke-opacity:1;stroke-dasharray:none" /><g
             transform="scale(10,10)"
             id="g184"><text
               transform="matrix(1,0,0,-1,40.6668,288.667)"
               id="text186"><tspan
                 x="0 5.5599999"
                 y="0"
                 id="tspan188"
                 style="font-size:10px;font-variant:normal;font-weight:normal;writing-mode:lr-tb;fill:#000000;fill-opacity:1;fill-rule:nonzero;stroke:none;font-family:Helvetica;-inkscape-font-specification:Helvetica">55</tspan></text>
</g><path
             d="m 546.668,2924.17 3258.332,0"
             id="path190"
             style="fill:none;stroke:#000000;stroke-width:5;stroke-linecap:butt;stroke-linejoin:round;stroke-miterlimit:10;stroke-opacity:1;stroke-dasharray:none" /><path
             d="M 546.668,355 3805,355"
             id="path192"
             style="fill:none;stroke:#000000;stroke-width:5;stroke-linecap:butt;stroke-linejoin:round;stroke-miterlimit:10;stroke-opacity:1;stroke-dasharray:none" /><path
             d="m 3805,355 0,2569.17"
             id="path194"
             style="fill:none;stroke:#000000;stroke-width:5;stroke-linecap:butt;stroke-linejoin:round;stroke-miterlimit:10;stroke-opacity:1;stroke-dasharray:none" /><path
             d="m 546.668,355 0,2569.17"
             id="path196"
             style="fill:none;stroke:#000000;stroke-width:5;stroke-linecap:butt;stroke-linejoin:round;stroke-miterlimit:10;stroke-opacity:1;stroke-dasharray:none" /></g></g><g
         id="g198"><g
           clip-path="url(#clipPath202)"
           id="g200"><path
             d="m 862.5,1018.33 c 0,-1.38 -1.121,-2.5 -2.5,-2.5 -1.379,0 -2.5,1.12 -2.5,2.5 0,1.38 1.121,2.5 2.5,2.5 1.379,0 2.5,-1.12 2.5,-2.5"
             id="path206"
             style="fill:#000000;fill-opacity:1;fill-rule:nonzero;stroke:none" /></g></g><g
         id="g208"><g
           clip-path="url(#clipPath212)"
           id="g210"><path
             d="m 890,1018.33 c 0,-16.56 -13.434,-29.998 -30,-29.998 -16.566,0 -30,13.438 -30,29.998 0,16.57 13.434,30 30,30 16.566,0 30,-13.43 30,-30"
             id="path216"
             style="fill:#000000;fill-opacity:1;fill-rule:nonzero;stroke:none" /><path
             d="m 890,1018.33 c 0,-16.56 -13.434,-29.998 -30,-29.998 -16.566,0 -30,13.438 -30,29.998 0,16.57 13.434,30 30,30 16.566,0 30,-13.43 30,-30"
             id="path218"
             style="fill:none;stroke:#000000;stroke-width:5;stroke-linecap:butt;stroke-linejoin:round;stroke-miterlimit:10;stroke-opacity:1;stroke-dasharray:none" /></g></g><g
         id="g220"><g
           clip-path="url(#clipPath224)"
           id="g222"><path
             d="m 817.5,539.168 -1.668,-1.668 -76.664,565.83"
             id="path228"
             style="fill:none;stroke:#000000;stroke-width:5;stroke-linecap:butt;stroke-linejoin:round;stroke-miterlimit:10;stroke-opacity:1;stroke-dasharray:none" /></g></g><g
         id="g230"><g
           clip-path="url(#clipPath234)"
           id="g232"><path
             d="m 793.332,515 48.3359,0 0,48.332 -48.3359,0 0,-48.332 z"
             id="path238"
             style="fill:#000000;fill-opacity:1;fill-rule:evenodd;stroke:none" /><path
             d="m 793.332,515 48.3359,0 0,48.332 -48.3359,0 0,-48.332 z"
             id="path240"
             style="fill:none;stroke:#000000;stroke-width:5;stroke-linecap:butt;stroke-linejoin:miter;stroke-miterlimit:10;stroke-opacity:1;stroke-dasharray:none" /><path
             d="m 791.668,513.332 48.332,0 0,48.3359 -48.332,0 0,-48.3359 z"
             id="path242"
             style="fill:#000000;fill-opacity:1;fill-rule:evenodd;stroke:none" /><path
             d="m 791.668,513.332 48.332,0 0,48.3359 -48.332,0 0,-48.3359 z"
             id="path244"
             style="fill:none;stroke:#000000;stroke-width:5;stroke-linecap:butt;stroke-linejoin:miter;stroke-miterlimit:10;stroke-opacity:1;stroke-dasharray:none" /><path
             d="m 715,1079.17 48.332,0 0,48.332 -48.332,0 0,-48.332 z"
             id="path246"
             style="fill:#000000;fill-opacity:1;fill-rule:evenodd;stroke:none" /><path
             d="m 715,1079.17 48.332,0 0,48.332 -48.332,0 0,-48.332 z"
             id="path248"
             style="fill:none;stroke:#000000;stroke-width:5;stroke-linecap:butt;stroke-linejoin:miter;stroke-miterlimit:10;stroke-opacity:1;stroke-dasharray:none" /></g></g><g
         id="g250"><g
           clip-path="url(#clipPath254)"
           id="g252"><path
             d="M 3745.83,1370.83 2768.33,2396.67 2424.17,2665"
             id="path258"
             style="fill:none;stroke:#000000;stroke-width:5;stroke-linecap:butt;stroke-linejoin:round;stroke-miterlimit:10;stroke-opacity:1;stroke-dasharray:none" /></g></g><g
         id="g260"><g
           clip-path="url(#clipPath264)"
           id="g262"><path
             d="m 3745.83,1331.67 30,39.16 -30,39.17 -30,-39.17 30,-39.16"
             id="path268"
             style="fill:#000000;fill-opacity:1;fill-rule:evenodd;stroke:none" /><path
             d="m 3745.83,1331.67 30,39.16 -30,39.17 -30,-39.17 30,-39.16 z"
             id="path270"
             style="fill:none;stroke:#000000;stroke-width:5;stroke-linecap:butt;stroke-linejoin:miter;stroke-miterlimit:10;stroke-opacity:1;stroke-dasharray:none" /><path
             d="m 2768.33,2357.5 30,39.17 -30,39.16 -30,-39.16 30,-39.17"
             id="path272"
             style="fill:#000000;fill-opacity:1;fill-rule:evenodd;stroke:none" /><path
             d="m 2768.33,2357.5 30,39.17 -30,39.16 -30,-39.16 30,-39.17 z"
             id="path274"
             style="fill:none;stroke:#000000;stroke-width:5;stroke-linecap:butt;stroke-linejoin:miter;stroke-miterlimit:10;stroke-opacity:1;stroke-dasharray:none" /><path
             d="m 2424.17,2625.83 30,39.17 -30,39.17 -30,-39.17 30,-39.17"
             id="path276"
             style="fill:#000000;fill-opacity:1;fill-rule:evenodd;stroke:none" /><path
             d="m 2424.17,2625.83 30,39.17 -30,39.17 -30,-39.17 30,-39.17 z"
             id="path278"
             style="fill:none;stroke:#000000;stroke-width:5;stroke-linecap:butt;stroke-linejoin:miter;stroke-miterlimit:10;stroke-opacity:1;stroke-dasharray:none" /></g></g><g
         id="g280"><g
           clip-path="url(#clipPath284)"
           id="g282"><path
             d="M 1105,523.332 967.5,561.668 898.332,713.332 864.168,954.168"
             id="path288"
             style="fill:none;stroke:#000000;stroke-width:5;stroke-linecap:butt;stroke-linejoin:round;stroke-miterlimit:10;stroke-opacity:1;stroke-dasharray:none" /></g></g><g
         id="g290"><g
           clip-path="url(#clipPath294)"
           id="g292"><path
             d="m 1070.83,503.332 68.34,0 -34.17,59.168 -34.17,-59.168"
             id="path298"
             style="fill:#000000;fill-opacity:1;fill-rule:evenodd;stroke:none" /><path
             d="m 1070.83,503.332 68.34,0 -34.17,59.168 -34.17,-59.168 z"
             id="path300"
             style="fill:none;stroke:#000000;stroke-width:5;stroke-linecap:butt;stroke-linejoin:miter;stroke-miterlimit:10;stroke-opacity:1;stroke-dasharray:none" /><path
             d="m 933.332,541.668 68.338,0 -34.17,59.164 -34.168,-59.164"
             id="path302"
             style="fill:#000000;fill-opacity:1;fill-rule:evenodd;stroke:none" /><path
             d="m 933.332,541.668 68.338,0 -34.17,59.164 -34.168,-59.164 z"
             id="path304"
             style="fill:none;stroke:#000000;stroke-width:5;stroke-linecap:butt;stroke-linejoin:miter;stroke-miterlimit:10;stroke-opacity:1;stroke-dasharray:none" /><path
             d="m 864.168,693.332 68.332,0 -34.168,59.168 -34.164,-59.168"
             id="path306"
             style="fill:#000000;fill-opacity:1;fill-rule:evenodd;stroke:none" /><path
             d="m 864.168,693.332 68.332,0 -34.168,59.168 -34.164,-59.168 z"
             id="path308"
             style="fill:none;stroke:#000000;stroke-width:5;stroke-linecap:butt;stroke-linejoin:miter;stroke-miterlimit:10;stroke-opacity:1;stroke-dasharray:none" /><path
             d="m 830,934.168 68.332,0 -34.164,59.164 L 830,934.168"
             id="path310"
             style="fill:#000000;fill-opacity:1;fill-rule:evenodd;stroke:none" /><path
             d="m 830,934.168 68.332,0 -34.164,59.164 L 830,934.168 z"
             id="path312"
             style="fill:none;stroke:#000000;stroke-width:5;stroke-linecap:butt;stroke-linejoin:miter;stroke-miterlimit:10;stroke-opacity:1;stroke-dasharray:none" /></g></g><g
         id="g314"><g
           clip-path="url(#clipPath318)"
           id="g316"><g
             transform="scale(10,10)"
             id="g322"><text
               transform="matrix(1,0,0,-1,185.667,273.25)"
               id="text324"><tspan
                 x="0 5 10.56 13.89 19.450001 25.01"
                 y="0"
                 id="tspan326"
                 style="font-size:10px;font-variant:normal;font-weight:normal;writing-mode:lr-tb;fill:#000000;fill-opacity:1;fill-rule:nonzero;stroke:none;font-family:Helvetica;-inkscape-font-specification:Helvetica">kernel</tspan><tspan
                 x="-7.25 -0.029999999 5.5300002 13.86 19.42 22.75 28.309999 33.310001 38.310001 40.529999 46.09 51.650002 54.43 57.209999 66.099998 68.879997"
                 y="261.75"
                 id="tspan328"
                 style="font-size:10px;font-variant:normal;font-weight:normal;writing-mode:lr-tb;fill:#000000;fill-opacity:1;fill-rule:nonzero;stroke:none;font-family:Helvetica;-inkscape-font-specification:Helvetica">Compression [%] </tspan></text>
<text
               transform="matrix(0,1,1,0,33.8332,143.417)"
               id="text330"><tspan
                 x="0 6.1100001 8.3299999 16.66 22.219999 25 27.780001 33.34 38.34"
                 y="0"
                 id="tspan332"
                 style="font-size:10px;font-variant:normal;font-weight:normal;writing-mode:lr-tb;fill:#000000;fill-opacity:1;fill-rule:nonzero;stroke:none;font-family:Helvetica;-inkscape-font-specification:Helvetica">Time [us]</tspan></text>
</g><path
             d="m 2725.83,407.5 1009.17,0 0,521.668 -1009.17,0 0,-521.668 z"
             id="path334"
             style="fill:#ffffff;fill-opacity:1;fill-rule:evenodd;stroke:none" /><path
             d="m 2725.83,407.5 0,521.668 1009.17,0 0,-521.668 -1009.17,0"
             id="path336"
             style="fill:none;stroke:#ffffff;stroke-width:5;stroke-linecap:butt;stroke-linejoin:round;stroke-miterlimit:10;stroke-opacity:1;stroke-dasharray:none" /><path
             d="m 2725.83,929.168 1009.17,0"
             id="path338"
             style="fill:none;stroke:#000000;stroke-width:5;stroke-linecap:butt;stroke-linejoin:round;stroke-miterlimit:10;stroke-opacity:1;stroke-dasharray:none" /><path
             d="m 2725.83,407.5 1009.17,0"
             id="path340"
             style="fill:none;stroke:#000000;stroke-width:5;stroke-linecap:butt;stroke-linejoin:round;stroke-miterlimit:10;stroke-opacity:1;stroke-dasharray:none" /><path
             d="m 3735,407.5 0,521.668"
             id="path342"
             style="fill:none;stroke:#000000;stroke-width:5;stroke-linecap:butt;stroke-linejoin:round;stroke-miterlimit:10;stroke-opacity:1;stroke-dasharray:none" /><path
             d="m 2725.83,407.5 0,521.668"
             id="path344"
             style="fill:none;stroke:#000000;stroke-width:5;stroke-linecap:butt;stroke-linejoin:round;stroke-miterlimit:10;stroke-opacity:1;stroke-dasharray:none" /><path
             d="m 2725.83,407.5 1009.17,0"
             id="path346"
             style="fill:none;stroke:#000000;stroke-width:5;stroke-linecap:butt;stroke-linejoin:round;stroke-miterlimit:10;stroke-opacity:1;stroke-dasharray:none" /><path
             d="m 2725.83,407.5 0,521.668"
             id="path348"
             style="fill:none;stroke:#000000;stroke-width:5;stroke-linecap:butt;stroke-linejoin:round;stroke-miterlimit:10;stroke-opacity:1;stroke-dasharray:none" /><path
             d="m 2725.83,929.168 1009.17,0"
             id="path350"
             style="fill:none;stroke:#000000;stroke-width:5;stroke-linecap:butt;stroke-linejoin:round;stroke-miterlimit:10;stroke-opacity:1;stroke-dasharray:none" /><path
             d="m 2725.83,407.5 1009.17,0"
             id="path352"
             style="fill:none;stroke:#000000;stroke-width:5;stroke-linecap:butt;stroke-linejoin:round;stroke-miterlimit:10;stroke-opacity:1;stroke-dasharray:none" /><path
             d="m 3735,407.5 0,521.668"
             id="path354"
             style="fill:none;stroke:#000000;stroke-width:5;stroke-linecap:butt;stroke-linejoin:round;stroke-miterlimit:10;stroke-opacity:1;stroke-dasharray:none" /><path
             d="m 2725.83,407.5 0,521.668"
             id="path356"
             style="fill:none;stroke:#000000;stroke-width:5;stroke-linecap:butt;stroke-linejoin:round;stroke-miterlimit:10;stroke-opacity:1;stroke-dasharray:none" /><g
             transform="scale(10,10)"
             id="g358"><text
               transform="matrix(1,0,0,-1,313,81.75)"
               id="text360"><tspan
                 x="0 6.1100001 14.44 20.280001 26.950001 32.509998 38.07 43.630001 46.41 48.630001 53.630001"
                 y="0"
                 id="tspan362"
                 style="font-size:10px;font-variant:normal;font-weight:normal;writing-mode:lr-tb;fill:#000000;fill-opacity:1;fill-rule:nonzero;stroke:none;font-family:Helvetica;-inkscape-font-specification:Helvetica">FM−Adaptive</tspan></text>
</g></g></g><g
         id="g364"><g
           clip-path="url(#clipPath368)"
           id="g366"><path
             d="m 2787.5,852.5 310.83,0"
             id="path372"
             style="fill:none;stroke:#000000;stroke-width:5;stroke-linecap:butt;stroke-linejoin:round;stroke-miterlimit:10;stroke-opacity:1;stroke-dasharray:none" /></g></g><g
         id="g374"><g
           clip-path="url(#clipPath378)"
           id="g376"><path
             d="m 2972.5,852.5 c 0,-16.566 -13.43,-30 -30,-30 -16.57,0 -30,13.434 -30,30 0,16.566 13.43,30 30,30 16.57,0 30,-13.434 30,-30"
             id="path382"
             style="fill:#000000;fill-opacity:1;fill-rule:nonzero;stroke:none" /><path
             d="m 2972.5,852.5 c 0,-16.566 -13.43,-30 -30,-30 -16.57,0 -30,13.434 -30,30 0,16.566 13.43,30 30,30 16.57,0 30,-13.434 30,-30"
             id="path384"
             style="fill:none;stroke:#000000;stroke-width:5;stroke-linecap:butt;stroke-linejoin:round;stroke-miterlimit:10;stroke-opacity:1;stroke-dasharray:none" /></g></g><g
         id="g386"><g
           clip-path="url(#clipPath390)"
           id="g388"><g
             transform="scale(10,10)"
             id="g394"><text
               transform="matrix(1,0,0,-1,313,69.4168)"
               id="text396"><tspan
                 x="0 7.2199998 12.78 20 26.67"
                 y="0"
                 id="tspan398"
                 style="font-size:10px;font-variant:normal;font-weight:normal;writing-mode:lr-tb;fill:#000000;fill-opacity:1;fill-rule:nonzero;stroke:none;font-family:Helvetica;-inkscape-font-specification:Helvetica">RLCSA</tspan></text>
</g></g></g><g
         id="g400"><g
           clip-path="url(#clipPath404)"
           id="g402"><path
             d="m 2787.5,730 310.83,0"
             id="path408"
             style="fill:none;stroke:#000000;stroke-width:5;stroke-linecap:butt;stroke-linejoin:round;stroke-miterlimit:10;stroke-opacity:1;stroke-dasharray:none" /></g></g><g
         id="g410"><g
           clip-path="url(#clipPath414)"
           id="g412"><path
             d="m 2918.33,705.832 48.3359,0 0,48.3359 -48.3359,0 0,-48.3359 z"
             id="path418"
             style="fill:#000000;fill-opacity:1;fill-rule:evenodd;stroke:none" /><path
             d="m 2918.33,705.832 48.3359,0 0,48.3359 -48.3359,0 0,-48.3359 z"
             id="path420"
             style="fill:none;stroke:#000000;stroke-width:5;stroke-linecap:butt;stroke-linejoin:miter;stroke-miterlimit:10;stroke-opacity:1;stroke-dasharray:none" /></g></g><g
         id="g422"><g
           clip-path="url(#clipPath426)"
           id="g424"><g
             transform="scale(10,10)"
             id="g430"><text
               transform="matrix(1,0,0,-1,313,57.1668)"
               id="text432"><tspan
                 x="0 6.1100001 14.44 20.280001 27.5 34.720001"
                 y="0"
                 id="tspan434"
                 style="font-size:10px;font-variant:normal;font-weight:normal;writing-mode:lr-tb;fill:#000000;fill-opacity:1;fill-rule:nonzero;stroke:none;font-family:Helvetica;-inkscape-font-specification:Helvetica">FM−RRR</tspan></text>
</g></g></g><g
         id="g436"><g
           clip-path="url(#clipPath440)"
           id="g438"><path
             d="m 2787.5,607.5 310.83,0"
             id="path444"
             style="fill:none;stroke:#000000;stroke-width:5;stroke-linecap:butt;stroke-linejoin:round;stroke-miterlimit:10;stroke-opacity:1;stroke-dasharray:none" /></g></g><g
         id="g446"><g
           clip-path="url(#clipPath450)"
           id="g448"><path
             d="m 2942.5,568.332 30,39.168 -30,39.168 -30,-39.168 30,-39.168"
             id="path454"
             style="fill:#000000;fill-opacity:1;fill-rule:evenodd;stroke:none" /><path
             d="m 2942.5,568.332 30,39.168 -30,39.168 -30,-39.168 30,-39.168 z"
             id="path456"
             style="fill:none;stroke:#000000;stroke-width:5;stroke-linecap:butt;stroke-linejoin:miter;stroke-miterlimit:10;stroke-opacity:1;stroke-dasharray:none" /></g></g><g
         id="g458"><g
           clip-path="url(#clipPath462)"
           id="g460"><g
             transform="scale(10,10)"
             id="g466"><text
               transform="matrix(1,0,0,-1,313,44.8332)"
               id="text468"><tspan
                 x="0 6.1100001 14.44 20.280001 27.5 32.5 38.060001 41.389999 43.610001"
                 y="0"
                 id="tspan470"
                 style="font-size:10px;font-variant:normal;font-weight:normal;writing-mode:lr-tb;fill:#000000;fill-opacity:1;fill-rule:nonzero;stroke:none;font-family:Helvetica;-inkscape-font-specification:Helvetica">FM−Hybrid</tspan></text>
</g></g></g><g
         id="g472"><g
           clip-path="url(#clipPath476)"
           id="g474"><path
             d="m 2787.5,485 310.83,0"
             id="path480"
             style="fill:none;stroke:#000000;stroke-width:5;stroke-linecap:butt;stroke-linejoin:round;stroke-miterlimit:10;stroke-opacity:1;stroke-dasharray:none" /></g></g><g
         id="g482"><g
           clip-path="url(#clipPath486)"
           id="g484"><path
             d="m 2908.33,465 68.34,0 -34.17,59.168 L 2908.33,465"
             id="path490"
             style="fill:#000000;fill-opacity:1;fill-rule:evenodd;stroke:none" /><path
             d="m 2908.33,465 68.34,0 -34.17,59.168 L 2908.33,465 z"
             id="path492"
             style="fill:none;stroke:#000000;stroke-width:5;stroke-linecap:butt;stroke-linejoin:miter;stroke-miterlimit:10;stroke-opacity:1;stroke-dasharray:none" /></g></g></g></g></svg>